HIERARCHY
ROOT SpineBase
{
  OFFSET 0.000000 0.000000 0.000000
  CHANNELS 6 Xposition Yposition Zposition Zrotation Xrotation Yrotation
  JOINT SpineMid
  {
    OFFSET -0.000000 26.270029 0.000000
    CHANNELS 3 Zrotation Xrotation Yrotation
    JOINT SpineShoulder
    {
      OFFSET 0.023451 19.489481 -0.744734
      CHANNELS 3 Zrotation Xrotation Yrotation
      JOINT Neck
      {
        OFFSET -0.004180 6.432198 -0.570048
        CHANNELS 3 Zrotation Xrotation Yrotation
        JOINT Head
        {
          OFFSET 2.809865 11.993635 -0.650022
          CHANNELS 3 Zrotation Xrotation Yrotation
          End Site
          {
            OFFSET 0 0 0
          }
        }
      }
      JOINT ShoulderLeft
      {
        OFFSET -13.865429 -2.529912 -9.217466
        CHANNELS 3 Zrotation Xrotation Yrotation
        JOINT ElbowLeft
        {
          OFFSET -8.548328 -20.744630 -5.149506
          CHANNELS 3 Zrotation Xrotation Yrotation
          JOINT WristLeft
          {
            OFFSET 7.113631 -13.596551 -22.114470
            CHANNELS 3 Zrotation Xrotation Yrotation
            JOINT HandLeft
            {
              OFFSET 0.664319 -4.908483 -0.210740
              CHANNELS 3 Zrotation Xrotation Yrotation
              JOINT HandTipLeft
              {
                OFFSET 2.641790 -7.458786 0.838167
                CHANNELS 3 Zrotation Xrotation Yrotation
                End Site
                {
                  OFFSET 0 0 0
                }
              }
              JOINT ThumbLeft
              {
                OFFSET -1.032671 -3.291473 3.804646
                CHANNELS 3 Zrotation Xrotation Yrotation
                End Site
                {
                  OFFSET 0 0 0
                }
              }
            }
          }
        }
      }
      JOINT ShoulderRight
      {
        OFFSET 13.744341 -5.403446 5.119809
        CHANNELS 3 Zrotation Xrotation Yrotation
        JOINT ElbowRight
        {
          OFFSET 5.521976 -21.813352 10.602844
          CHANNELS 3 Zrotation Xrotation Yrotation
          JOINT WristRight
          {
            OFFSET 19.770408 -5.592582 -16.963694
            CHANNELS 3 Zrotation Xrotation Yrotation
            JOINT HandRight
            {
              OFFSET 3.196428 -0.377348 -2.750082
              CHANNELS 3 Zrotation Xrotation Yrotation
              JOINT HandTipRight
              {
                OFFSET 5.344783 -3.829954 -6.212992
                CHANNELS 3 Zrotation Xrotation Yrotation
                End Site
                {
                  OFFSET 0 0 0
                }
              }
              JOINT ThumbRight
              {
                OFFSET -1.835880 -4.641333 -2.861396
                CHANNELS 3 Zrotation Xrotation Yrotation
                End Site
                {
                  OFFSET 0 0 0
                }
              }
            }
          }
        }
      }
    }
  }
  JOINT HipLeft
  {
    OFFSET -5.984455 0.714818 -6.312133
    CHANNELS 3 Zrotation Xrotation Yrotation
    JOINT KneeLeft
    {
      OFFSET 15.798109 -6.037819 -27.815846
      CHANNELS 3 Zrotation Xrotation Yrotation
      JOINT AnkleLeft
      {
        OFFSET -0.282007 -35.787097 5.070132
        CHANNELS 3 Zrotation Xrotation Yrotation
        JOINT FootLeft
        {
          OFFSET 3.777309 -7.464788 -2.723069
          CHANNELS 3 Zrotation Xrotation Yrotation
          End Site
          {
            OFFSET 0 0 0
          }
        }
      }
    }
  }
  JOINT HipRight
  {
    OFFSET 5.836834 -0.160245 -0.479034
    CHANNELS 3 Zrotation Xrotation Yrotation
    JOINT KneeRight
    {
      OFFSET 25.923022 -5.753825 -21.512604
      CHANNELS 3 Zrotation Xrotation Yrotation
      JOINT AnkleRight
      {
        OFFSET -5.513970 -36.300284 4.523228
        CHANNELS 3 Zrotation Xrotation Yrotation
        JOINT FootRight
        {
          OFFSET 4.909139 -6.180068 -10.730683
          CHANNELS 3 Zrotation Xrotation Yrotation
          End Site
          {
            OFFSET 0 0 0
          }
        }
      }
    }
  }
}
MOTION
Frames: 10
Frame Time: 0.033333
5.427096 49.317561 391.797794 -1.749569 -3.843215 -27.139688 0.093631 0.086016 27.019884 -0.157591 0.339128 -0.091854 -9.095604 -3.419120 1.105356 0.000000 0.000000 0.000000 -2.294482 4.590025 0.923127 3.520005 -3.709993 -1.049526 1.894821 16.926617 2.161390 -1.431467 -9.862934 -0.375259 0.000000 0.000000 0.000000 0.000000 0.000000 0.000000 8.810484 7.895700 3.948817 -19.695682 -11.879141 -0.749416 1.663291 0.382624 -0.521264 -8.468783 -7.492057 2.938026 0.000000 0.000000 0.000000 0.000000 0.000000 0.000000 -0.448853 7.698397 28.959040 -2.661257 -3.725177 -2.118539 2.557715 15.280491 6.562707 0.000000 0.000000 0.000000 0.559194 7.638975 30.307186 -2.437632 -1.037557 -3.603553 -13.663940 -18.995742 12.287183 0.000000 0.000000 0.000000
5.466626 49.346426 391.552520 -1.632749 -3.487408 -27.411115 0.106254 -0.109289 27.301882 -0.153501 0.215831 -0.091722 -9.066145 -3.433007 1.092617 0.000000 0.000000 0.000000 -2.271990 4.699157 0.837596 3.388965 -3.881893 -0.858121 3.127622 17.785254 1.897893 -3.533931 -12.246817 -1.489119 0.000000 0.000000 0.000000 0.000000 0.000000 0.000000 8.578309 8.046842 3.924451 -19.211259 -11.910634 -1.081079 5.137986 3.099280 -2.017848 -10.004789 -9.529919 1.780217 0.000000 0.000000 0.000000 0.000000 0.000000 0.000000 -0.386383 7.218979 29.042897 -2.705510 -3.639175 -1.938432 3.427244 11.300782 4.362633 0.000000 0.000000 0.000000 0.624690 7.267472 30.381655 -2.501068 -1.093500 -3.390853 -13.858240 -18.358187 13.519726 0.000000 0.000000 0.000000
5.542532 49.389934 391.099548 -1.468237 -2.852606 -27.514877 0.142498 -0.367867 27.421068 -0.180632 -0.066386 -0.093780 -8.977753 -3.463317 1.069030 0.000000 0.000000 0.000000 -2.221644 4.817325 0.714462 3.207929 -4.253187 -0.681683 4.769400 19.014848 1.586419 -6.368519 -15.641262 -3.174783 0.000000 0.000000 0.000000 0.000000 0.000000 0.000000 8.373807 7.769110 3.841122 -18.731818 -11.626332 -1.189278 4.273728 2.516967 -1.653494 -9.629393 -9.076341 2.438208 0.000000 0.000000 0.000000 0.000000 0.000000 0.000000 -0.185829 6.378560 28.819558 -2.754545 -3.464019 -1.623941 3.538496 11.348891 4.386135 0.000000 0.000000 0.000000 0.741151 6.440747 30.233729 -2.411374 -1.174579 -3.081515 -13.237358 -16.707985 13.569308 0.000000 0.000000 0.000000
5.623189 49.452403 390.521887 -1.318145 -2.053629 -27.482748 0.219153 -0.629283 27.403756 -0.230102 -0.436243 -0.097500 -8.797631 -3.479667 1.032172 0.000000 0.000000 0.000000 -2.186043 5.129814 0.500200 3.100832 -4.956825 -0.533078 6.352607 19.993763 1.331340 -8.331391 -14.724824 -3.070842 0.000000 0.000000 0.000000 0.000000 0.000000 0.000000 8.187198 7.605191 3.806251 -18.217223 -11.420715 -1.347058 -0.021003 -0.725884 -1.488021 -9.645147 -10.313390 2.790341 0.000000 0.000000 0.000000 0.000000 0.000000 0.000000 0.134372 5.311313 28.372645 -2.778222 -3.212718 -1.219622 2.862292 18.635849 8.076482 0.000000 0.000000 0.000000 0.873542 5.248494 29.950933 -2.107346 -1.290750 -2.726543 -11.061539 -12.262400 12.402608 0.000000 0.000000 0.000000
5.684208 49.524434 389.861024 -1.205472 -1.174119 -27.304642 0.294122 -0.843872 27.238088 -0.288434 -0.855402 -0.103704 -8.544230 -3.496497 0.978181 0.000000 0.000000 0.000000 -2.030147 5.192353 0.319681 2.877315 -5.581282 -0.458983 6.830147 17.966551 1.079650 -9.287443 -15.869166 -4.102468 0.000000 0.000000 0.000000 0.000000 0.000000 0.000000 8.014060 7.497580 3.805121 -17.568183 -11.224914 -1.545549 -7.938555 -7.080668 0.227332 -8.016698 -9.341852 3.983507 0.000000 0.000000 0.000000 0.000000 0.000000 0.000000 0.539969 4.123547 27.734160 -2.723606 -2.882022 -0.753287 1.790460 24.544575 11.362864 0.000000 0.000000 0.000000 1.017326 3.848854 29.551237 -1.532843 -1.720461 -2.312403 -9.846958 -12.083220 8.623747 0.000000 0.000000 0.000000
5.745363 49.579592 389.249380 -1.109748 -0.383186 -27.131177 0.347679 -0.973879 27.075109 -0.357233 -1.230608 -0.110417 -8.327101 -3.549419 0.916050 0.000000 0.000000 0.000000 -1.870455 4.981358 0.226764 2.709305 -5.757354 -0.458936 6.506646 15.523425 0.987552 -8.107772 -11.328910 -2.460237 0.000000 0.000000 0.000000 0.000000 0.000000 0.000000 8.064224 7.336453 3.890626 -17.817225 -11.429186 -1.741049 -6.100711 -5.594469 0.146458 -9.702019 -11.011941 2.901700 0.000000 0.000000 0.000000 0.000000 0.000000 0.000000 0.897638 3.071916 27.173937 -2.655490 -2.612440 -0.351662 -0.053625 29.857867 14.900686 0.000000 0.000000 0.000000 1.376156 2.900885 28.644729 -1.479171 -1.532214 -1.561472 -7.642399 -8.546032 7.230229 0.000000 0.000000 0.000000
5.750743 49.638967 388.674719 -1.116268 0.331430 -26.923700 0.406266 -1.012752 26.874235 -0.418837 -1.548195 -0.119780 -8.089022 -3.664592 0.847601 0.000000 0.000000 0.000000 -1.693106 4.184540 0.343597 2.626458 -5.167977 -0.670798 5.222723 16.526485 1.412907 -6.560884 -13.166860 -2.733603 0.000000 0.000000 0.000000 0.000000 0.000000 0.000000 8.054414 7.118269 3.945753 -18.221628 -11.858125 -1.980510 -1.017476 -1.573811 1.129787 -14.975401 -14.682230 1.703439 0.000000 0.000000 0.000000 0.000000 0.000000 0.000000 1.313266 2.093171 26.531888 -2.565648 -2.333101 0.103837 -0.600055 27.339562 14.082099 0.000000 0.000000 0.000000 1.733571 1.974227 27.772909 -1.342825 -1.286696 -0.874371 -9.981666 -8.051293 12.645997 0.000000 0.000000 0.000000
5.723885 49.717010 388.078102 -1.176448 1.103106 -26.466112 0.520353 -1.106975 26.423780 -0.460422 -1.823993 -0.128804 -7.824591 -3.771716 0.774258 0.000000 0.000000 0.000000 -1.503972 3.120735 0.552734 2.602521 -4.176872 -1.006692 2.381390 17.235111 2.210789 -2.653033 -15.755793 -2.763892 0.000000 0.000000 0.000000 0.000000 0.000000 0.000000 8.032253 6.996711 4.023990 -18.252577 -12.119964 -2.192852 0.383918 -0.417238 1.110735 -17.942423 -17.087727 2.365091 0.000000 0.000000 0.000000 0.000000 0.000000 0.000000 1.790191 1.020730 25.667273 -2.415470 -1.948098 0.547471 -1.722525 25.127054 13.728417 0.000000 0.000000 0.000000 2.194818 1.010773 26.484922 -1.239192 -1.029057 -0.015480 -10.250374 -8.737416 12.643382 0.000000 0.000000 0.000000
5.608881 49.772956 388.013912 -1.363171 0.960208 -27.008402 0.430987 -0.652425 26.964806 -0.442863 -1.827245 -0.132418 -7.477211 -3.801193 0.715126 0.000000 0.000000 0.000000 -1.365577 1.623007 0.979395 2.367183 -2.431076 -0.941229 3.825286 21.130256 1.896463 -3.475732 -16.242971 -2.033340 0.000000 0.000000 0.000000 0.000000 0.000000 0.000000 8.106319 6.929922 4.125241 -18.372345 -12.351640 -2.327148 1.951824 0.850207 1.513208 -21.425570 -19.485050 2.529822 0.000000 0.000000 0.000000 0.000000 0.000000 0.000000 1.903452 1.024896 26.040378 -2.288070 -1.680685 0.728774 -1.888734 24.972133 13.752401 0.000000 0.000000 0.000000 2.263913 1.145386 26.925421 -1.172655 -0.953954 0.083178 -9.289853 -6.622760 12.359549 0.000000 0.000000 0.000000
5.588422 49.823785 388.311598 -1.367983 0.306154 -27.474921 0.124950 -0.131153 27.426264 -0.416492 -1.571409 -0.128303 -7.150672 -3.752015 0.671930 0.000000 0.000000 0.000000 -1.151383 0.553520 1.253713 2.164338 -1.220396 -1.036195 3.372393 22.138495 1.971399 -3.057152 -16.908027 -1.958444 0.000000 0.000000 0.000000 0.000000 0.000000 0.000000 8.058401 6.822544 4.148188 -18.221533 -12.370954 -2.273077 2.452942 1.251272 1.796006 -22.464411 -19.966072 2.439262 0.000000 0.000000 0.000000 0.000000 0.000000 0.000000 1.560586 1.620401 26.676015 -2.295389 -1.638949 0.536671 0.395633 17.011602 8.730014 0.000000 0.000000 0.000000 1.846217 1.698261 27.831110 -1.059570 -0.954402 -0.374433 -9.751471 -7.146312 12.907264 0.000000 0.000000 0.000000
